<svg width="438" height="329" viewBox="0 0 438 329" fill="none" xmlns="http://www.w3.org/2000/svg">
<path fill-rule="evenodd" clip-rule="evenodd" d="M427.767 48.599C427.767 40.32 421.046 33.599 412.767 33.599H41.767C33.488 33.599 26.767 40.32 26.767 48.599V284.599C26.767 292.877 33.488 299.599 41.767 299.599H412.767C421.046 299.599 427.767 292.877 427.767 284.599V48.599Z" fill="#CCE6FF" fill-opacity="0.258824"/>
<path fill-rule="evenodd" clip-rule="evenodd" d="M415.767 33.599C415.767 25.32 409.046 18.599 400.767 18.599H29.767C21.488 18.599 14.767 25.32 14.767 33.599V269.599C14.767 277.877 21.488 284.599 29.767 284.599H400.767C409.046 284.599 415.767 277.877 415.767 269.599V33.599Z" fill="url(#paint0_linear_1_63)"/>
<path fill-rule="evenodd" clip-rule="evenodd" d="M393.767 66.599H35.767V255.599C35.767 261.67 40.696 266.599 46.767 266.599H385.767C390.182 266.599 393.767 263.014 393.767 258.599V66.599Z" fill="url(#paint1_linear_1_63)"/>
<mask id="mask0_1_63" style="mask-type:luminance" maskUnits="userSpaceOnUse" x="35" y="66" width="359" height="201">
<path d="M393.767 66.599H35.767V255.599C35.767 261.67 40.696 266.599 46.767 266.599H385.767C390.182 266.599 393.767 263.014 393.767 258.599V66.599Z" fill="white"/>
</mask>
<g mask="url(#mask0_1_63)">
<path d="M373.767 79.599H52.767V126.599H373.767V79.599Z" fill="#E5F1FF"/>
<path d="M158.767 136.599H55.767V200.599H158.767V136.599Z" fill="#E5F1FF"/>
<path d="M271.767 210.599H55.767V257.599H271.767V210.599Z" fill="#E5F1FF"/>
<path d="M372.767 210.599H284.767V257.599H372.767V210.599Z" fill="#E5F1FF"/>
<path d="M261.767 136.599H172.767V150.599H261.767V136.599Z" fill="#E5F1FF"/>
<path d="M372.767 160.599H170.767V175.599H372.767V160.599Z" fill="#E5F1FF"/>
<path d="M372.767 185.599H170.767V200.599H372.767V185.599Z" fill="#E5F1FF"/>
</g>
<path d="M66.767 49.599C71.1853 49.599 74.767 46.0173 74.767 41.599C74.767 37.1807 71.1853 33.599 66.767 33.599C62.3487 33.599 58.767 37.1807 58.767 41.599C58.767 46.0173 62.3487 49.599 66.767 49.599Z" fill="#0084FF"/>
<path d="M43.767 49.599C48.1853 49.599 51.767 46.0173 51.767 41.599C51.767 37.1807 48.1853 33.599 43.767 33.599C39.3487 33.599 35.767 37.1807 35.767 41.599C35.767 46.0173 39.3487 49.599 43.767 49.599Z" fill="#55D7FF"/>
<path d="M89.767 49.599C94.1853 49.599 97.767 46.0173 97.767 41.599C97.767 37.1807 94.1853 33.599 89.767 33.599C85.3487 33.599 81.767 37.1807 81.767 41.599C81.767 46.0173 85.3487 49.599 89.767 49.599Z" fill="#0BBC00"/>
<path fill-rule="evenodd" clip-rule="evenodd" d="M330.767 41.599C330.767 37.183 327.182 33.599 322.767 33.599H177.767C173.352 33.599 169.767 37.183 169.767 41.599C169.767 46.014 173.352 49.599 177.767 49.599H322.767C327.182 49.599 330.767 46.014 330.767 41.599Z" fill="#E5F1FF"/>
<path fill-rule="evenodd" clip-rule="evenodd" d="M393.767 41.599C393.767 37.183 390.182 33.599 385.767 33.599H376.767C372.352 33.599 368.767 37.183 368.767 41.599C368.767 46.014 372.352 49.599 376.767 49.599H385.767C390.182 49.599 393.767 46.014 393.767 41.599Z" fill="#E5F1FF"/>
<path fill-rule="evenodd" clip-rule="evenodd" d="M362.767 41.599C362.767 37.183 359.182 33.599 354.767 33.599H345.767C341.352 33.599 337.767 37.183 337.767 41.599C337.767 46.014 341.352 49.599 345.767 49.599H354.767C359.182 49.599 362.767 46.014 362.767 41.599Z" fill="#E5F1FF"/>
<path d="M292 309C329.003 309 359 279.003 359 242C359 204.997 329.003 175 292 175C254.997 175 225 204.997 225 242C225 279.003 254.997 309 292 309Z" fill="url(#paint2_radial_1_63)"/>
<path fill-rule="evenodd" clip-rule="evenodd" d="M292 157C338.913 157 377 195.087 377 242C377 288.913 338.913 327 292 327C245.088 327 207 288.913 207 242C207 195.087 245.088 157 292 157ZM292 176C328.427 176 358 205.573 358 242C358 278.426 328.427 308 292 308C255.574 308 226 278.426 226 242C226 205.573 255.574 176 292 176Z" fill="url(#paint3_linear_1_63)"/>
<path d="M292.757 164.332C295.038 164.665 295.062 165.684 295.167 166.731C295.514 170.182 289.095 169.585 284.095 170.159C260.7 172.849 239.173 187.569 228.027 208.615C228.027 208.615 227.348 209.752 226.192 209.987C223.987 210.434 222.166 208.179 223.753 205.241C237.134 180.747 263.797 164.504 292.149 164.321C292.149 164.321 292.45 164.318 292.757 164.332Z" fill="white"/>
<path d="M217.409 234.91C217.933 234.977 218.016 235.028 218.237 235.125C220.528 236.133 219.636 240.088 219.689 243.611C219.797 250.926 221.017 258.203 223.276 265.166C223.276 265.166 223.507 267.84 221.636 268.514C218.384 269.686 217.027 263.814 215.858 258.001C214.517 251.334 214.061 244.452 214.464 237.723C214.504 237.062 215.026 234.905 217.237 234.9C217.294 234.903 217.352 234.907 217.409 234.91Z" fill="white"/>
<path d="M341.359 267.264C331.208 286.333 310.983 299.334 287.689 299.334" stroke="#CCE6FF" stroke-width="5.36" stroke-miterlimit="10" stroke-linecap="round"/>
<path d="M345.319 220.678C347.262 226.553 348.312 232.827 348.312 239.344C348.312 240.658 348.269 241.962 348.185 243.255" stroke="#CCE6FF" stroke-width="5.36" stroke-miterlimit="10" stroke-linecap="round"/>
<path fill-rule="evenodd" clip-rule="evenodd" d="M297 194C297 190.136 293.864 187 290 187C286.137 187 283 190.136 283 194V246C283 249.863 286.137 253 290 253C293.864 253 297 249.863 297 246V194Z" fill="#17BC00"/>
<path fill-rule="evenodd" clip-rule="evenodd" d="M330 246C330 242.136 326.864 239 323 239H290C286.137 239 283 242.136 283 246C283 249.863 286.137 253 290 253H323C326.864 253 330 249.863 330 246Z" fill="#0BBC00"/>
<defs>
<linearGradient id="paint0_linear_1_63" x1="20.4879" y1="134.172" x2="20.4879" y2="351.149" gradientUnits="userSpaceOnUse">
<stop stop-color="#CCE6FF"/>
<stop offset="1" stop-color="#1D98FF"/>
</linearGradient>
<linearGradient id="paint1_linear_1_63" x1="376.66" y1="167.006" x2="376.66" y2="456.434" gradientUnits="userSpaceOnUse">
<stop stop-color="white"/>
<stop offset="1" stop-color="#D0E4FC"/>
</linearGradient>
<radialGradient id="paint2_radial_1_63" cx="0" cy="0" r="1" gradientUnits="userSpaceOnUse" gradientTransform="translate(292.343 239.992) scale(79.3329 79.3329)">
<stop stop-color="white"/>
<stop offset="0.55" stop-color="#F5F9FE"/>
<stop offset="1" stop-color="#D0E4FC"/>
</radialGradient>
<linearGradient id="paint3_linear_1_63" x1="362.306" y1="256.573" x2="362.306" y2="370.237" gradientUnits="userSpaceOnUse">
<stop stop-color="#2684FB"/>
<stop offset="1" stop-color="#0563C5"/>
</linearGradient>
</defs>
</svg>
