<svg width="414" height="282" viewBox="0 0 414 282" fill="none" xmlns="http://www.w3.org/2000/svg">
<path fill-rule="evenodd" clip-rule="evenodd" d="M413.395 30.931C413.395 22.652 406.674 15.931 398.395 15.931H27.395C19.116 15.931 12.395 22.652 12.395 30.931V266.931C12.395 275.21 19.116 281.931 27.395 281.931H398.395C406.674 281.931 413.395 275.21 413.395 266.931V30.931Z" fill="#CCE6FF" fill-opacity="0.258824"/>
<path fill-rule="evenodd" clip-rule="evenodd" d="M401.395 15.931C401.395 7.65203 394.674 0.93103 386.395 0.93103H15.395C7.11599 0.93103 0.394989 7.65203 0.394989 15.931V251.931C0.394989 260.21 7.11599 266.931 15.395 266.931H386.395C394.674 266.931 401.395 260.21 401.395 251.931V15.931Z" fill="url(#paint0_linear_2_23)"/>
<path fill-rule="evenodd" clip-rule="evenodd" d="M379.395 48.931H21.395V237.931C21.395 244.002 26.324 248.931 32.395 248.931H371.395C375.81 248.931 379.395 245.346 379.395 240.931V48.931Z" fill="url(#paint1_linear_2_23)"/>
<path d="M52.395 31.931C56.8133 31.931 60.395 28.3493 60.395 23.931C60.395 19.5128 56.8133 15.931 52.395 15.931C47.9767 15.931 44.395 19.5128 44.395 23.931C44.395 28.3493 47.9767 31.931 52.395 31.931Z" fill="#0084FF"/>
<path d="M29.395 31.931C33.8133 31.931 37.395 28.3493 37.395 23.931C37.395 19.5128 33.8133 15.931 29.395 15.931C24.9767 15.931 21.395 19.5128 21.395 23.931C21.395 28.3493 24.9767 31.931 29.395 31.931Z" fill="#55D7FF"/>
<path d="M75.395 31.931C79.8133 31.931 83.395 28.3493 83.395 23.931C83.395 19.5128 79.8133 15.931 75.395 15.931C70.9767 15.931 67.395 19.5128 67.395 23.931C67.395 28.3493 70.9767 31.931 75.395 31.931Z" fill="#0BBC00"/>
<path fill-rule="evenodd" clip-rule="evenodd" d="M316.395 23.931C316.395 19.516 312.81 15.931 308.395 15.931H163.395C158.98 15.931 155.395 19.516 155.395 23.931C155.395 28.346 158.98 31.931 163.395 31.931H308.395C312.81 31.931 316.395 28.346 316.395 23.931Z" fill="#E5F1FF"/>
<path fill-rule="evenodd" clip-rule="evenodd" d="M379.395 23.931C379.395 19.516 375.81 15.931 371.395 15.931H362.395C357.98 15.931 354.395 19.516 354.395 23.931C354.395 28.346 357.98 31.931 362.395 31.931H371.395C375.81 31.931 379.395 28.346 379.395 23.931Z" fill="#E5F1FF"/>
<path fill-rule="evenodd" clip-rule="evenodd" d="M348.395 23.931C348.395 19.516 344.81 15.931 340.395 15.931H331.395C326.98 15.931 323.395 19.516 323.395 23.931C323.395 28.346 326.98 31.931 331.395 31.931H340.395C344.81 31.931 348.395 28.346 348.395 23.931Z" fill="#E5F1FF"/>
<path d="M171.796 139.415C171.796 136.487 169.966 133.559 167.16 132.339L123.118 112.575C122.508 112.331 121.776 112.209 121.166 112.209C118.482 112.209 115.798 114.283 115.92 117.455C115.92 119.407 117.018 121.359 119.092 122.213L159.962 139.659L119.092 156.983C117.14 157.837 116.042 159.667 116.042 161.741C116.042 164.791 118.604 166.865 121.166 166.865C121.776 166.865 122.508 166.743 123.118 166.499L167.16 146.857C169.966 145.637 171.796 142.709 171.796 139.415Z" fill="#00C400"/>
<path d="M244.508 190.411C244.508 187.605 242.19 185.287 239.506 185.287H178.628C175.822 185.287 173.504 187.605 173.504 190.411C173.504 193.339 175.822 195.657 178.628 195.657H239.506C242.19 195.657 244.508 193.339 244.508 190.411Z" fill="#00C400"/>
<defs>
<linearGradient id="paint0_linear_2_23" x1="13.8807" y1="128.947" x2="13.8807" y2="385.153" gradientUnits="userSpaceOnUse">
<stop stop-color="#CCE6FF"/>
<stop offset="1" stop-color="#1D98FF"/>
</linearGradient>
<linearGradient id="paint1_linear_2_23" x1="114.869" y1="67.0659" x2="114.869" y2="371.911" gradientUnits="userSpaceOnUse">
<stop stop-color="white"/>
<stop offset="1" stop-color="#D0E4FC"/>
</linearGradient>
</defs>
</svg>
