<svg width="200" height="200" viewBox="0 0 200 200" fill="none" xmlns="http://www.w3.org/2000/svg">
<path fill-rule="evenodd" clip-rule="evenodd" d="M176.953 150.156L105 191.758C101.914 193.555 98.0859 193.555 95 191.758L23.0469 150.156C19.9609 148.359 18.0469 145.039 18.0469 141.563V58.4375C18.0469 54.8438 19.9609 51.6406 23.0469 49.8438L95 8.24219C98.0859 6.44531 101.914 6.44531 105 8.24219L176.953 49.9219C180.039 51.7188 181.953 55.0391 181.953 58.5156V141.641C181.836 145.156 179.961 148.438 176.953 150.234V150.156Z" fill="#8D6748"/>
<path d="M99.8828 22.5781C100.859 22.5781 101.836 22.8906 102.695 23.3594L164.844 59.2578C166.562 60.2734 167.617 62.1484 167.656 64.1406V135.937C167.656 137.93 166.602 139.805 164.844 140.82L102.695 176.68C101.797 177.187 100.937 177.461 99.8828 177.461C98.9062 177.461 97.9297 177.187 97.0703 176.68L34.9609 140.82C33.2422 139.805 32.1875 137.93 32.1484 135.937V64.1797C32.1484 62.1875 33.2031 60.3125 34.9609 59.2969L97.1094 23.4375C98.0078 22.8906 99.0234 22.5781 99.8828 22.5781ZM99.8828 19.6094C98.3984 19.6094 96.875 20.0391 95.5859 20.8203L33.4375 56.6797C30.7812 58.2031 29.1406 61.0156 29.1406 64.0625V135.82C29.1406 138.906 30.7422 141.719 33.4375 143.203L95.5859 179.102C96.875 179.883 98.3984 180.312 99.8828 180.312C101.367 180.312 102.891 179.883 104.18 179.102L166.328 143.242C168.984 141.719 170.625 138.906 170.625 135.859V64.0625C170.625 60.9766 169.023 58.1641 166.328 56.6797L104.18 20.7812C102.891 20 101.406 19.6094 99.8828 19.6094ZM108.789 64.0625C108.789 63.5547 108.359 63.0469 107.773 63.0469H88.9844C88.4766 63.0469 87.9687 63.4766 87.9687 64.0625C87.9687 67.4609 88.4766 79.1406 93.4766 84.8438C93.6719 85.0391 93.9062 85.1563 94.1797 85.1563H102.539C102.812 85.1563 103.047 85.0391 103.242 84.8438C108.242 79.2578 108.75 67.5781 108.789 64.0625ZM101.406 82.2656H95.5078C95.2344 82.2656 95 82.1484 94.8047 81.9531C91.4062 78.0078 91.0156 69.9609 90.8984 67.1484C90.8984 66.6406 91.3281 66.1328 91.9141 66.1328H105.078C105.586 66.1328 106.094 66.5625 106.094 67.1484C106.094 69.9609 105.586 77.8516 102.187 81.9531C101.875 82.1484 101.68 82.2656 101.406 82.2656ZM100.273 61.0547C100.273 61.0547 103.867 58.9453 101.68 55.1562C100.391 53.1641 99.7656 51.4453 100.273 50.7422C98.9844 52.3437 96.7578 54.0234 99.1797 57.6172C100 58.5547 100.391 60.4688 100.273 61.0547ZM96.3281 61.3672C96.3281 61.3672 98.7109 59.9609 97.2266 57.4219C96.3281 56.1328 95.9375 54.9219 96.3281 54.5313C95.4297 55.625 94.0234 56.7188 95.625 59.2188C96.1328 59.6875 96.3281 60.9766 96.3281 61.3672Z" fill="white"/>
<path d="M104.453 72.9688C104.023 75.6641 103.242 78.75 101.562 80.7813C101.367 80.9766 101.133 81.0938 100.977 81.0938H95.9766C95.7812 81.0938 95.4687 80.9766 95.3906 80.7813C94.1797 79.2969 93.3984 77.2656 92.8906 75.1953C92.8906 75.1953 98.6719 75.9766 101.992 74.7656C104.336 73.8281 104.453 72.9688 104.453 72.9688ZM38.7891 89.1406H42.5L48.5937 98.5547L54.6875 89.1406H58.3984V109.141H54.8828V94.8438L48.5937 104.258H48.4766L42.3047 94.9609V109.258H38.7891V89.1406ZM76.4844 109.453C75.0391 109.453 73.6328 109.18 72.3047 108.672C71.0547 108.164 69.9219 107.422 69.0234 106.484C68.0859 105.547 67.3828 104.414 66.9141 103.203C66.4063 101.992 66.1328 100.547 66.1328 99.2578V99.1406C66.1328 97.7344 66.4453 96.4453 66.9141 95.1953C67.4219 93.9844 68.125 92.8906 69.1016 91.9141C70.0391 90.9766 71.1719 90.1953 72.3828 89.7266C73.6719 89.1406 75.0781 88.9453 76.5625 88.9453C78.0078 88.9453 79.4141 89.2187 80.7422 89.7266C81.9922 90.2344 83.125 90.9766 84.0234 91.9141C84.9609 92.8516 85.6641 93.9844 86.1328 95.1953C86.6406 96.4062 86.9141 97.8516 86.9141 99.1406V99.2578C86.9141 100.664 86.6016 101.953 86.1328 103.203C85.625 104.414 84.9219 105.508 83.9453 106.484C83.0078 107.422 81.875 108.203 80.6641 108.672C79.375 109.219 77.9687 109.453 76.4844 109.453ZM76.4844 106.25C77.5 106.25 78.3984 106.055 79.1797 105.664C79.9609 105.273 80.6641 104.766 81.2891 104.18C81.875 103.594 82.3047 102.773 82.6953 101.992C83.0078 101.133 83.1641 100.195 83.2031 99.2969V99.1797C83.2031 98.1641 83.0078 97.2656 82.6953 96.3672C82.3828 95.5078 81.9141 94.7266 81.2891 94.0625C80.6641 93.4375 79.9609 92.9297 79.1797 92.5781C78.3984 92.1484 77.5 91.9922 76.4844 91.9922C75.5469 91.9922 74.6094 92.1875 73.7891 92.5781C73.0078 92.9688 72.3047 93.4766 71.6797 94.0625C71.0937 94.6484 70.6641 95.4687 70.2734 96.25C69.9609 97.1094 69.8047 98.0469 69.7656 98.9453V99.0625C69.7656 100.078 69.9609 100.977 70.2734 101.875C70.5859 102.734 71.0547 103.516 71.6797 104.18C72.3047 104.805 73.0078 105.313 73.7891 105.664C74.6094 106.055 75.5469 106.25 76.4844 106.25ZM103.867 109.453C102.5 109.453 101.133 109.18 99.8828 108.672C98.6719 108.164 97.5781 107.383 96.6797 106.484C95.7422 105.547 95.0391 104.414 94.5703 103.203C94.0625 101.914 93.7891 100.547 93.7891 99.2578V99.1406C93.7891 97.7344 94.1016 96.3281 94.5703 95.1953C95.0781 93.9844 95.7812 92.8516 96.6797 91.9141C97.6172 90.9766 98.75 90.1953 99.9609 89.7266C101.289 89.1797 102.734 88.9062 104.141 88.9453C105.039 88.9453 105.82 89.0625 106.641 89.1406L108.75 89.7266C109.336 90.0391 109.961 90.3125 110.43 90.7422L111.914 92.0313L109.609 94.6875C108.867 93.9844 108.008 93.3984 107.109 92.9297C106.133 92.4609 105.078 92.1875 104.023 92.2266C103.125 92.2266 102.227 92.4219 101.406 92.8125C100.625 93.2031 99.9219 93.7109 99.2969 94.2969C98.7109 94.8828 98.2813 95.7031 97.8906 96.4844C97.5781 97.3438 97.4219 98.2812 97.3828 99.1797V99.2969C97.3828 100.312 97.5781 101.211 97.8906 102.109C98.2031 102.969 98.6719 103.75 99.2969 104.414C99.8828 105 100.586 105.625 101.406 105.898C102.188 106.211 103.086 106.484 104.062 106.484C105.273 106.484 106.367 106.289 107.148 105.781C108.086 105.234 108.945 104.57 109.766 103.867L112.07 106.172C111.562 106.758 111.055 107.188 110.469 107.656C109.883 108.164 109.258 108.437 108.711 108.75C108.047 109.102 107.344 109.336 106.602 109.453C105.703 109.648 104.844 109.648 103.906 109.648L103.867 109.453ZM119.023 89.1406H122.539V97.4219H132.148V89.1406H135.664V109.141H132.148V100.781H122.578V109.141H119.062L119.023 89.1406ZM151.133 89.0625H154.336L163.125 109.141H159.414L157.422 104.297H148.008L145.898 109.141H142.305L151.133 89.0625ZM156.094 101.25L152.695 93.2422L149.297 101.25C149.297 101.25 156.094 101.25 156.094 101.25ZM36.25 115.43H163.75V116.523H36.25V115.43ZM163.75 77.8516H109.531C109.531 78.2813 109.414 78.5547 109.414 78.9453H163.672V77.8516H163.75ZM36.3281 77.8516V78.9453H87.3828C87.3828 78.5156 87.2656 78.2422 87.2656 77.8516H36.3281Z" fill="white"/>
</svg>
