<svg width="286" height="68" viewBox="0 0 286 68" fill="none" xmlns="http://www.w3.org/2000/svg">
<g clip-path="url(#clip0_22_3)">
<path d="M282.012 0H3.98805C1.78551 0 0 1.7049 0 3.808V64.192C0 66.2951 1.78551 68 3.98805 68H282.012C284.214 68 286 66.2951 286 64.192V3.808C286 1.7049 284.214 0 282.012 0Z" fill="#3178C6"/>
<path fill-rule="evenodd" clip-rule="evenodd" d="M174.62 51.3256V48.7761C177.057 50.2501 179.525 50.9869 182.026 50.9869C184.685 50.9869 186.702 50.4644 188.079 49.4191C189.456 48.3738 190.144 46.9113 190.144 45.0312C190.144 43.3769 189.682 42.0572 188.756 41.072C187.863 40.1222 185.966 38.8402 183.065 37.2259L182.738 37.0453C179.288 35.135 177.104 33.537 176.186 32.2513C175.268 30.9653 174.81 29.4802 174.81 27.7957C174.81 25.5096 175.743 23.5695 177.611 21.9753C179.478 20.3811 181.971 19.584 185.088 19.584C187.114 19.584 189.139 19.9073 191.165 20.554V22.9003C189.171 22.043 187.043 21.6144 184.78 21.6144C182.469 21.6144 180.637 22.1708 179.284 23.2838C177.931 24.3967 177.254 25.8104 177.254 27.525C177.254 29.1793 177.717 30.4953 178.643 31.4728C179.569 32.4504 181.567 33.7816 184.637 35.4661C187.818 37.1805 189.935 38.7034 190.987 40.0343C192.04 41.3655 192.566 42.8957 192.566 44.6251C192.566 47.1068 191.66 49.1297 189.848 50.6937C188.036 52.258 185.476 53.04 182.168 53.04C180.997 53.04 179.648 52.867 178.121 52.521C176.594 52.1753 175.427 51.7765 174.62 51.3256ZM90.2518 24.6875H99.9861V20.128H74.9183V24.6875H84.6289V52.496H90.2518V24.6875ZM108.959 56.1968L119.926 29.376H114.372L108.295 46.218C108.15 46.7342 108.037 47.1544 107.956 47.4789L107.867 47.8434H107.749C107.622 47.3274 107.521 46.9243 107.446 46.6344L107.321 46.1728L101.529 29.376H95.4283L105.09 52.4489L103.452 56.242C102.439 58.1683 100.904 59.1317 98.8466 59.1317C98.1345 59.1317 97.3431 58.9962 96.4729 58.7253V63.0825C97.2483 63.2781 98.2137 63.376 99.3688 63.376C103.484 63.376 106.68 60.9829 108.959 56.1968ZM128.941 49.0704H128.846V63.104H123.345V29.3735H128.846V33.4348H128.941C130.823 30.3661 133.573 28.832 137.194 28.832C140.277 28.832 142.68 29.8623 144.403 31.923C146.126 33.9837 146.988 36.7513 146.988 40.2258C146.988 44.0765 146.016 47.1599 144.071 49.4765C142.127 51.7929 139.471 52.951 136.103 52.951C133.004 52.951 130.617 51.6574 128.941 49.0704ZM128.757 42.9458V40.0958C128.757 38.1211 129.353 36.4755 130.546 35.1587C131.738 33.8422 133.314 33.184 135.273 33.184C137.121 33.184 138.586 33.8235 139.668 35.1027C140.75 36.3819 141.291 38.151 141.291 40.4099C141.291 43.103 140.71 45.2012 139.549 46.7046C138.388 48.2082 136.789 48.96 134.751 48.96C133.014 48.96 131.581 48.3765 130.451 47.2097C129.322 46.0428 128.757 44.6213 128.757 42.9458V42.9458ZM171.771 42.3585H155.361C155.424 44.4965 156.11 46.1448 157.419 47.304C158.727 48.4633 160.525 49.0429 162.814 49.0429C165.384 49.0429 167.743 48.3053 169.89 46.83V51.0528C167.696 52.3777 164.796 53.04 161.192 53.04C157.65 53.04 154.872 51.9898 152.858 49.8897C150.844 47.7896 149.837 44.8351 149.837 41.0263C149.837 37.4283 150.946 34.4964 153.163 32.2306C155.381 29.9649 158.136 28.832 161.427 28.832C164.718 28.832 167.265 29.8482 169.067 31.8806C170.87 33.9129 171.771 36.7358 171.771 40.3487V42.3585ZM165.261 34.2154C166.167 35.2656 166.628 36.7352 166.643 38.624H155.534C155.784 36.8408 156.452 35.3978 157.538 34.2946C158.624 33.1916 159.948 32.64 161.511 32.64C163.104 32.64 164.354 33.1652 165.261 34.2154V34.2154ZM206.497 53.04C209.008 53.04 211.169 52.5139 212.98 51.4621V49.2984C211.169 50.5305 209.04 51.1466 206.593 51.1466C203.923 51.1466 201.774 50.2376 200.146 48.4192C198.517 46.6009 197.702 44.1967 197.702 41.2064C197.702 38.111 198.592 35.5904 200.372 33.6442C202.152 31.6983 204.471 30.7254 207.331 30.7254C209.413 30.7254 211.328 31.2362 213.076 32.2581V29.914C211.328 29.1927 209.524 28.832 207.665 28.832C204.074 28.832 201.135 30.0002 198.847 32.337C196.558 34.6737 195.414 37.6752 195.414 41.3418C195.414 44.828 196.431 47.6492 198.465 49.8054C200.499 51.9618 203.177 53.04 206.497 53.04ZM227.319 31.4614C226.595 30.9626 225.746 30.7134 224.771 30.7134C222.868 30.7134 221.272 31.6578 219.982 33.5466C218.692 35.4356 218.047 38.1178 218.047 41.5934V52.496H215.924V29.2854H218.047V34.4306H218.142C218.692 32.6626 219.565 31.2876 220.76 30.3054C221.956 29.3232 223.34 28.832 224.913 28.832C225.809 28.832 226.611 28.968 227.319 29.24V31.4614ZM230.721 23.1522C231.089 23.4934 231.514 23.664 231.995 23.664C232.508 23.664 232.949 23.4856 233.317 23.1289C233.686 22.7722 233.871 22.3457 233.871 21.8494C233.871 21.3221 233.682 20.9034 233.305 20.5932C232.929 20.2831 232.492 20.128 231.995 20.128C231.53 20.128 231.109 20.2869 230.733 20.6049C230.356 20.9228 230.167 21.3377 230.167 21.8494C230.167 22.3768 230.352 22.811 230.721 23.1522V23.1522ZM230.737 52.496V29.376H233.016V52.496H230.737ZM240.315 48.3806H240.41C242.141 51.492 244.816 53.0479 248.435 53.0479C251.677 53.0479 254.286 51.8565 256.261 49.4741C258.235 47.0916 259.223 43.9688 259.223 40.1056C259.223 36.6335 258.361 33.8863 256.638 31.8645C254.915 29.8427 252.519 28.832 249.45 28.832C247.515 28.832 245.74 29.2941 244.128 30.2186C242.514 31.1432 241.275 32.4545 240.41 34.1531H240.315V29.3956H238.143V63.104H240.315V48.3806ZM240.422 39.7876V42.6923C240.422 45.004 241.193 46.9891 242.735 48.648C244.276 50.3067 246.303 51.136 248.814 51.136C251.309 51.136 253.335 50.1266 254.893 48.1075C256.45 46.0885 257.229 43.4354 257.229 40.148C257.229 37.2659 256.514 34.9767 255.084 33.2803C253.653 31.5841 251.746 30.736 249.362 30.736C246.517 30.736 244.316 31.6366 242.758 33.438C241.201 35.2392 240.422 37.3559 240.422 39.7876V39.7876ZM269.727 53.04C270.713 53.04 271.77 52.7848 272.896 52.2746V50.3382C271.864 50.8936 270.901 51.1713 270.009 51.1713C268.757 51.1713 267.868 50.8148 267.344 50.1018C266.82 49.3889 266.557 48.237 266.557 46.6458V31.426H272.896V29.5348H266.557V22.848C266.213 22.9681 265.853 23.0806 265.478 23.1857C265.102 23.3058 264.742 23.4258 264.398 23.5459V29.5348H260.078V31.426H264.398V46.9159C264.398 50.9986 266.174 53.04 269.727 53.04V53.04Z" fill="white"/>
</g>
<defs>
<clipPath id="clip0_22_3">
<rect width="286" height="68" fill="white"/>
</clipPath>
</defs>
</svg>
